PathFileType	4	(X/Y/Z)	OpenSim_Sub10_CSBaseline_Accel.trc
DataRate	CameraRate	NumFrames	NumMarkers	Units	OrigDataRate	OrigDataStartFrame	OrigNumFrames
100	100	27	8	m	100	6834	9111
Frame#	Time	torso_imu_offset_imu	pelvis_imu_offset_imu	tibia_r_imu_offset_imu	femur_r_imu_offset_imu	tibia_l_imu_offset_imu	femur_l_imu_offset_imu	toes_r_imu_offset_imu	toes_l_imu_offset_imu
				X1	Y1	Z1	X2	Y2	Z2	X3	Y3	Z3	X4	Y4	Z4	X5	Y5	Z5	X6	Y6	Z6	X7	Y7	Z7	X8		Y8	Z8	

6834	68.33000000	7.73116433	-0.22090556	6.50288918	7.94033640	2.10637727	2.07329507	9.71316347	-1.50465868	0.06394343	8.77329356	-1.36484504	-0.58692432	9.74784223	-2.33160185	1.98691029	5.86966446	3.25985996	-0.25883401	4.53108220	0.01726975	8.81427748	11.30177775	3.16650434	15.33416277
6835	68.34000000	7.85750706	-0.26253561	6.32693026	7.96354909	2.19335787	2.17589213	9.72531004	-1.39962781	0.02297161	8.73219497	-1.35156662	-0.54478518	11.60255645	-0.17161622	2.26520426	6.10945484	2.12671663	-0.07335272	4.57126184	0.07437252	8.78155275	16.28771151	4.99605354	17.30445299
6836	68.35000000	7.96903426	-0.33453458	6.31395662	8.04605770	2.39892876	2.29153548	9.96093489	-1.45898168	0.16679942	8.75374061	-1.13702900	-0.40346094	13.35499534	1.77266493	2.68689105	5.94261212	2.40041069	0.10616976	4.59361638	0.13600666	8.83431385	19.62901917	3.22166269	17.14999222
6837	68.36000000	7.92215837	-0.32854494	6.34086682	8.23058729	2.58037747	2.36795914	10.05859342	-1.61040809	0.16771624	8.95849053	-0.88426324	-0.16280582	14.41242125	2.49478645	2.28135120	5.91192553	2.42595644	0.72833384	5.14883301	0.15555399	8.56770416	20.38477122	1.44581331	15.34989422
6838	68.37000000	8.04965665	-0.40560424	6.34168640	8.52048905	2.78828841	2.46841379	9.93516772	-1.74069462	0.18043579	9.20349513	-0.53908467	-0.09242648	15.04890439	1.34172831	1.31616344	6.16976405	2.67823702	1.36901437	4.66580176	0.13528460	8.84899086	20.14226201	2.26178638	13.32559426
6839	68.38000000	8.23113369	-0.43352753	6.51867575	8.76652036	2.91647619	2.56395457	9.70205656	-1.78840926	0.01173082	9.30150598	-0.24852801	-0.26329008	15.28159255	-0.13063581	0.80336884	6.74041488	3.23144521	1.80108979	4.59360679	0.01581427	8.89527044	19.98787309	1.80952607	11.31676677
6840	68.39000000	8.69675630	-0.42577467	6.62786842	8.98983072	2.89004569	2.67430299	9.79299508	-1.71913612	0.13088832	9.36419194	-0.04541184	-0.43969324	14.60800567	-1.33114086	0.54771997	7.34938829	4.13623839	2.09156803	4.59749785	0.09855340	8.96196685	20.36162062	0.34591215	9.27494886
6841	68.40000000	9.01105381	-0.51661743	6.71381215	9.13666126	2.76040443	2.74950768	10.07376714	-1.54712382	0.25702204	9.47406208	-0.00402441	-0.63237653	12.92374793	-2.06251949	0.74439620	7.91552051	5.38449712	2.28314300	4.84263026	0.23467970	8.84234510	20.52587237	1.04539853	7.83099162
6842	68.41000000	9.19849391	-0.61906428	6.71579323	9.27328334	2.39199044	2.74877176	10.25128381	-1.10581140	0.12403778	9.62523303	-0.09161525	-0.77495188	11.15205321	-2.07538195	1.52160375	8.95023737	7.19500762	2.03352030	4.92071800	0.60723239	9.00057738	20.16951477	1.15245721	5.55067037
6843	68.42000000	9.07732999	-0.71039054	6.70711780	9.30438696	1.81307560	2.80527368	10.35620036	-0.54940791	-0.15413268	9.67675739	-0.13381634	-0.82423763	9.84699993	-1.98274462	2.25175537	8.64471509	9.16735345	1.16348615	4.78471611	0.30674212	9.02239329	19.59078337	1.30694890	3.09184333
6844	68.43000000	9.07363940	-0.77755317	6.69083006	9.50475744	1.38152281	2.70059650	10.27387245	0.15807950	-0.24018424	9.49591695	-0.12549465	-0.76383889	8.82359778	-1.01041934	1.78301181	8.50570144	11.21232418	-0.33385063	4.68004124	0.17147769	9.19141145	19.02834579	0.49883364	0.64663645
6845	68.44000000	9.15480228	-0.78875735	6.77618870	9.65290865	0.99672336	2.45467939	10.30770105	0.83929349	-0.20066244	9.29215371	-0.04443320	-0.70072976	8.51996886	0.58954657	0.30208930	8.25265231	11.33216256	-0.03499817	4.47070157	0.00975120	9.33171856	18.80516934	-1.29678209	-1.31248040
6846	68.45000000	9.48134959	-0.83546907	6.83667958	9.79820103	0.87769463	2.18016105	10.36498916	1.51697778	-0.23831561	9.28046426	-0.05189888	-0.77257821	9.18798993	0.96134027	-0.92399981	7.53706653	10.87985176	0.40025229	4.83529634	0.08520662	9.19690763	18.42526545	-2.52724884	-3.04103280
6847	68.46000000	9.67052402	-0.78913663	6.89890208	9.86631051	1.01253656	1.85073209	10.50529514	2.17517315	-0.18660759	9.48715362	-0.08105697	-0.97764734	9.53551332	0.39099097	-0.92826534	7.67342923	9.66753860	0.64926924	4.80511017	0.53149965	9.30193535	18.09059077	-0.95436585	-3.23172458
6848	68.47000000	9.79473879	-0.73561248	6.95679191	9.90751838	1.34417407	1.60527076	10.58612981	2.47593466	-0.57629776	9.61633935	-0.08652153	-1.35476346	9.20130780	-0.34524769	-0.27166564	7.63903485	8.54076266	1.05854373	4.82698205	0.30753718	9.22847782	17.87233476	1.15494501	-2.00765437
6849	68.48000000	9.89586140	-0.71593193	6.81935761	9.97021333	1.67859910	1.34738771	10.60037669	2.55145443	-0.27601916	9.48012789	0.04042482	-1.57425185	8.72232507	-0.80997778	0.49380621	7.88723454	7.47647231	1.76138028	4.76818614	0.35523845	9.30517535	16.79448250	1.40943264	-0.68597289
6850	68.49000000	9.77661813	-0.62740021	7.04021973	10.02451736	2.11645381	1.22043707	10.54466464	2.23482550	0.29185095	9.26373679	0.26165350	-1.72975469	8.54656280	-1.21166738	0.98735418	7.32086970	6.26482832	2.39895746	5.19934543	0.57124886	9.01213968	15.23535286	0.41432721	0.44936498
6851	68.50000000	9.68957032	-0.61957403	7.20960084	9.93582805	2.58733411	1.32978366	10.59629100	1.44652638	0.01945630	9.28246067	0.47805213	-1.74585929	9.26886713	-1.25478815	0.45050423	7.56540568	5.44172137	2.82559270	4.84632580	1.94685952	9.93029214	13.03799942	0.87835721	1.38728220
6852	68.51000000	9.69520279	-0.65555770	7.15963954	9.96925254	3.10079789	1.95844343	10.74523319	0.92683308	0.52461434	9.70706197	0.69809228	-1.70629673	11.06663572	0.79818707	2.19682370	6.64939539	4.76312138	2.66060413	4.60732947	0.21217751	9.48824413	5.84720883	8.06863312	2.85949729
6853	68.52000000	9.75588331	-0.62325263	7.34238247	10.18641489	3.37077353	2.50048536	11.12486416	0.78961975	1.28537764	10.44817190	0.65143286	-1.61147481	12.74040791	2.12245032	5.88042941	6.52200804	4.28526839	2.27968187	4.65047952	0.79310393	9.97172741	0.04940266	0.09866025	9.31508115
6854	68.53000000	10.00524075	-0.61841993	7.73142238	10.65314381	3.60427413	2.79755498	11.61781421	0.33407677	0.43259951	11.20422024	0.44729737	-1.47809125	13.10389988	4.07244118	7.32313899	7.19035734	4.53662602	1.56912004	4.78106052	-0.08757544	9.62638406	5.69851331	-4.07242357	17.04309399
6855	68.54000000	10.41332255	-0.59153395	7.98741449	11.32744209	3.51807951	2.97536328	11.83596853	-0.15579400	0.77767372	11.61558628	0.04337024	-1.26236881	13.26037981	5.42523013	7.14828357	9.04044117	4.84874470	0.44621370	4.60278886	0.46369991	10.18514900	4.05169493	-1.31722426	14.16197085
6856	68.55000000	10.83296802	-0.63740820	8.05716119	11.87597170	3.05447803	3.25077319	11.96140759	-0.59968625	0.88175938	11.41244905	-0.56224831	-0.94537588	13.48469407	4.82915567	6.09072617	10.53814401	5.27715279	0.06393484	4.02324064	-0.13391064	10.27100195	6.68744855	-5.53938979	11.61904085
6857	68.56000000	10.79203215	-0.52509681	8.17291545	12.28906948	2.31259541	3.47470531	12.20548448	-0.77130867	1.04525704	11.39737947	-0.97186048	-0.68135721	12.85464459	1.55814996	5.30858578	12.36588934	6.07739855	-0.32002076	4.12147185	0.04666111	10.04499177	10.31269136	-6.04893539	14.95093883
6858	68.57000000	10.60143989	-0.48546451	8.14599847	12.52741686	1.46805575	3.55961841	12.47561343	-0.88667006	1.71709592	11.51500393	-1.44032978	-0.63394876	10.95817681	-3.13672487	3.65016073	13.36743255	6.72817499	-0.56820710	3.99217792	0.04431675	10.14831558	11.48722598	-4.48678439	15.23594551
6859	68.58000000	10.77015539	-0.33779541	7.94676909	12.06587313	0.80127964	3.62383355	12.56436228	-1.00697485	2.15391161	11.59142855	-1.54854634	-0.61270440	8.81024959	-6.10894363	1.17853706	13.80754274	6.58364493	-0.09831267	4.49179678	-0.09210974	10.00222947	10.29430049	2.09901731	13.56303317
6860	68.59000000	10.96496033	-0.13250672	7.79978408	11.48043144	0.44012310	3.48848014	12.68933429	-1.09931390	2.70746631	11.38340590	-1.56618630	-0.45390436	7.43610386	-6.84766021	-1.19226201	11.96004374	6.80037119	0.11847193	3.99708205	-0.46203857	9.98935542	10.23240709	6.29193972	12.90250628
